/vscmnt/brussel_pixiu_data/_data_brussel/112/vsc11236/PredSimResults/SUBJ11opt3D/expIG/worker_04.mot
version=1
nRows=11
nColumns=50
inDegrees=yes
endheader
                time	         pelvis_tilt	         pelvis_list	     pelvis_rotation	           pelvis_tx	           pelvis_ty	           pelvis_tz	       hip_flexion_r	     hip_adduction_r	      hip_rotation_r	        knee_angle_r	       ankle_angle_r	         mtp_angle_r	       hip_flexion_l	     hip_adduction_l	      hip_rotation_l	        knee_angle_l	       ankle_angle_l	         mtp_angle_l	    lumbar_extension	      lumbar_bending	     lumbar_rotation	 ercspn_r/activation	 intobl_r/activation	 extobl_r/activation	    abd_r/activation	    add_r/activation	hamstrings_r/activation	bifemsh_r/activation	glut_max_r/activation	iliopsoas_r/activation	rect_fem_r/activation	  vasti_r/activation	gastroc_r/activation	 soleus_r/activation	tib_ant_r/activation	 ercspn_l/activation	 intobl_l/activation	 extobl_l/activation	    abd_l/activation	    add_l/activation	hamstrings_l/activation	bifemsh_l/activation	glut_max_l/activation	iliopsoas_l/activation	rect_fem_l/activation	  vasti_l/activation	gastroc_l/activation	 soleus_l/activation	tib_ant_l/activation	
          0.00000000	         -2.59636434	         -0.41615871	          5.34692211	          0.00000000	          0.94714987	         -0.00739058	         29.65493348	         -2.43188638	         -3.38349676	        -10.21754387	          0.74227288	          0.23972745	        -12.01230114	         -2.45849645	         -3.39702762	        -12.72549164	         13.25043609	         26.63857931	        -14.66383161	         -3.20379553	         -3.14836946	          0.01469116	          0.22140055	          0.06763225	          0.00999999	          0.17558298	          0.01241316	          0.08728504	          0.06464654	          0.08528030	          0.04395265	          0.01617233	          0.00999999	          0.00999999	          0.36547350	          0.01000000	          0.00999999	          0.00999999	          0.04119139	          0.01252779	          0.01248342	          0.13718883	          0.01868074	          0.03969090	          0.01028210	          0.00999999	          0.12552426	          0.29234085	          0.01252786	
          0.01516725	         -2.75877040	         -0.44105752	          5.30472411	          0.01749242	          0.94504233	         -0.00552856	         29.19618564	         -2.21975501	         -3.51053935	        -10.89136212	          0.24964609	          0.20483503	        -12.53814309	         -2.68018984	         -3.85617563	        -13.39475228	         12.63466333	         28.26064629	        -14.22295345	         -2.71332494	         -3.41452099	          0.01172678	          0.19386369	          0.05398541	          0.02570943	          0.14628162	          0.03923523	          0.06967266	          0.07634104	          0.06807244	          0.03508389	          0.01290908	          0.01252786	          0.01252786	          0.40477324	          0.00999999	          0.00999999	          0.01252786	          0.03287979	          0.01000000	          0.01474980	          0.10950686	          0.01692729	          0.03168207	          0.00999999	          0.00999999	          0.10019597	          0.27588735	          0.00999999	
          0.03033450	         -2.90082818	         -0.47869714	          5.23764557	          0.03532920	          0.94337095	         -0.00357355	         28.73093116	         -2.02310111	         -3.70597318	        -11.60465910	         -0.45104952	          0.19987612	        -12.92994682	         -2.93092187	         -4.32218292	        -14.34432468	         11.83497463	         29.96888717	        -13.75655241	         -2.19922707	         -3.67415073	          0.01945672	          0.15474586	          0.04309223	          0.06742523	          0.17748351	          0.04306166	          0.05561411	          0.07256515	          0.05433678	          0.02800466	          0.03478772	          0.00999999	          0.00999999	          0.47014777	          0.01000000	          0.00999999	          0.00999999	          0.02624531	          0.00999999	          0.01177359	          0.08741056	          0.01351170	          0.02528926	          0.01000003	          0.01000001	          0.07997842	          0.25399050	          0.00999999	
          0.04550176	         -3.02208938	         -0.51484632	          5.14380323	          0.05324267	          0.94235101	         -0.00153428	         28.35784738	         -1.84603232	         -3.97217993	        -12.48963035	         -1.19807182	          0.15854197	        -13.08859531	         -3.20109835	         -4.79357124	        -15.70641064	         10.80495863	         31.77919884	        -13.29757035	         -1.67990698	         -3.92216984	          0.02142074	          0.12352123	          0.03439708	          0.09354065	          0.19142652	          0.04785904	          0.04439230	          0.05792295	          0.04337270	          0.02235388	          0.09324400	          0.00999999	          0.00999999	          0.51402038	          0.03324073	          0.00999999	          0.00999999	          0.02094953	          0.01000000	          0.02546697	          0.06977285	          0.01252787	          0.02018639	          0.01000000	          0.01742408	          0.06384037	          0.22744357	          0.00999999	
          0.06066901	         -3.12288191	         -0.54856440	          5.02845138	          0.07110780	          0.94213092	          0.00056655	         28.02983481	         -1.67245491	         -4.23426410	        -13.53669961	         -1.61917804	          0.11014029	        -12.96534195	         -3.49509555	         -5.27354593	        -17.53601766	          9.51209845	         33.64176672	        -12.85545945	         -1.16004251	         -4.15762037	          0.01726772	          0.09859711	          0.02745643	          0.11224436	          0.20725645	          0.05084558	          0.03543482	          0.07548026	          0.03462095	          0.01784331	          0.13255988	          0.00999999	          0.00999999	          0.51580911	          0.06024458	          0.00999999	          0.00999999	          0.01672233	          0.05971664	          0.04227964	          0.05569408	          0.01000000	          0.01611318	          0.00999999	          0.01966219	          0.05095866	          0.18827790	          0.00999999	
          0.07583626	         -3.20489506	         -0.57591848	          4.89135529	          0.08872799	          0.94284444	          0.00269518	         27.69396581	         -1.48976019	         -4.42271336	        -14.65793660	         -1.59972018	          0.06862953	        -12.47813165	         -3.81495926	         -5.76648451	        -19.94731900	          7.97718849	         35.38800874	        -12.44748602	         -0.64512896	         -4.37684162	          0.01378346	          0.07870218	          0.02191627	          0.12412646	          0.24043090	          0.05514046	          0.02828479	          0.08340559	          0.02763514	          0.01424289	          0.14556794	          0.00999999	          0.00999999	          0.47841421	          0.07302651	          0.00999999	          0.00999999	          0.01334810	          0.12146241	          0.05614945	          0.04445613	          0.00999999	          0.01286186	          0.00999999	          0.01569475	          0.04067622	          0.15028717	          0.00999999	
          0.09100351	         -3.26834192	         -0.58682169	          4.73191099	          0.10594201	          0.94445314	          0.00481384	         27.30299351	         -1.30023711	         -4.50429997	        -15.74826542	         -1.18415438	          0.07024824	        -11.55044894	         -4.16067662	         -6.28838448	        -23.05508152	          6.26352939	         36.75517746	        -12.08794716	         -0.14562877	         -4.57489784	          0.01100332	          0.06282165	          0.01749401	          0.13205461	          0.24855431	          0.05989701	          0.02257751	          0.07641393	          0.02205892	          0.01136896	          0.15800779	          0.00999999	          0.00999999	          0.40917900	          0.08767329	          0.03043263	          0.00999999	          0.01065472	          0.12869262	          0.06485994	          0.03548577	          0.00999999	          0.01026660	          0.00999999	          0.01252786	          0.03246857	          0.11996222	          0.00999999	
          0.10617077	         -3.31270224	         -0.56261680	          4.55263736	          0.12266365	          0.94681855	          0.00689246	         26.78995660	         -1.12077355	         -4.48251697	        -16.66164638	         -0.49215682	          0.18077084	        -10.15401263	         -4.53110427	         -6.88025533	        -26.91013536	          4.55443346	         37.19835387	        -11.78457376	          0.31516414	         -4.74614188	          0.01000000	          0.05014549	          0.01396406	          0.12929262	          0.25342037	          0.06353868	          0.02234754	          0.07841630	          0.01760787	          0.00999999	          0.16673309	          0.00999999	          0.00999999	          0.33603269	          0.07789663	          0.03179105	          0.00999999	          0.00999999	          0.18323803	          0.06156329	          0.02832545	          0.00999999	          0.00999999	          0.00999999	          0.00999999	          0.02591706	          0.09575623	          0.00999999	
          0.12133802	         -3.33778630	         -0.47850764	          4.34677082	          0.13886944	          0.94980576	          0.00889313	         26.08966618	         -0.98118888	         -4.39601968	        -17.24240541	          0.24268665	          0.39970783	         -8.30658785	         -4.92142927	         -7.56362551	        -31.45962326	          2.82087662	         36.53445212	        -11.53974139	          0.71260289	         -4.88245228	          0.01000000	          0.04002713	          0.01114639	          0.11677379	          0.25267013	          0.06766121	          0.01966210	          0.07533118	          0.01405495	          0.00999999	          0.17169227	          0.00999999	          0.00999999	          0.28181111	          0.06217865	          0.02537625	          0.02524083	          0.00999999	          0.24048049	          0.04914105	          0.02260997	          0.00999999	          0.00999999	          0.00999999	          0.00999999	          0.02068751	          0.07643454	          0.00999999	
          0.13650527	         -3.34321722	         -0.31706856	          4.10488590	          0.15458288	          0.95324311	          0.01079699	         25.18698596	         -0.90233207	         -4.25236015	        -17.44121700	          0.88003590	          0.68504333	         -6.09759634	         -5.32635709	         -8.32529965	        -36.46288770	          0.86044463	         34.93307810	        -11.35215716	          1.03032030	         -4.98251367	          0.01000000	          0.03195046	          0.00999999	          0.09887606	          0.23884743	          0.06683903	          0.01569469	          0.06766758	          0.01121894	          0.00999999	          0.17486257	          0.00999999	          0.00999999	          0.24474643	          0.04963227	          0.02025583	          0.05410668	          0.00999999	          0.27420393	          0.03922537	          0.04273227	          0.00999999	          0.01000000	          0.00999999	          0.00999999	          0.01651318	          0.06101157	          0.01920439	
          0.15167252	         -3.32814151	         -0.07313630	          3.81968430	          0.16982116	          0.95692799	          0.01261198	         24.12747184	         -0.89382924	         -4.03837116	        -17.34090471	          1.43360127	          1.01367917	         -3.64292969	         -5.73870262	         -9.08865689	        -41.67313153	         -1.23986819	         32.24877070	        -11.22302053	          1.26049842	         -5.04996308	          0.01000000	          0.02550349	          0.00999999	          0.08863135	          0.19065283	          0.06158963	          0.01252782	          0.05623955	          0.00999999	          0.00999999	          0.16959865	          0.00999999	          0.00999999	          0.21734313	          0.06112719	          0.03991599	          0.08709510	          0.00999999	          0.21887505	          0.03131047	          0.04460862	          0.00999999	          0.01000000	          0.00999999	          0.00999999	          0.01318115	          0.04870065	          0.06744152	
